<?xml version="1.0" standalone="no"?>
<!DOCTYPE svg PUBLIC "-//W3C//DTD SVG 20010904//EN"
 "http://www.w3.org/TR/2001/REC-SVG-20010904/DTD/svg10.dtd">
<svg version="1.0" xmlns="http://www.w3.org/2000/svg"
 width="225.000000pt" height="225.000000pt" viewBox="0 0 225.000000 225.000000"
 preserveAspectRatio="xMidYMid meet">
<metadata>
Created by potrace 1.11, written by Peter Selinger 2001-2013
</metadata>
<g transform="translate(0.000000,225.000000) scale(0.100000,-0.100000)"
fill="#000000" stroke="none">
<path d="M502 1887 c-28 -29 -29 -80 -2 -107 10 -10 38 -29 62 -41 24 -12 103
-55 176 -96 217 -121 351 -168 544 -188 84 -9 148 5 248 55 204 100 360 220
360 274 0 32 -49 86 -77 86 -10 -1 -47 -22 -81 -49 -68 -51 -182 -121 -272
-167 -87 -44 -242 -43 -377 2 -59 20 -209 90 -243 114 -60 42 -262 140 -288
140 -17 0 -37 -9 -50 -23z"/>
<path d="M653 1560 c-12 -5 -29 -23 -38 -41 -14 -25 -14 -36 -5 -60 14 -34
184 -159 217 -159 37 0 76 42 75 81 -1 39 -44 84 -146 150 -64 41 -69 43 -103
29z"/>
<path d="M1589 1470 c-9 -5 -52 -24 -95 -41 -98 -38 -128 -68 -120 -118 11
-73 66 -87 182 -47 160 55 180 73 175 149 -2 33 -47 67 -88 67 -21 0 -45 -5
-54 -10z"/>
<path d="M415 1199 c10 -33 55 -80 55 -57 0 9 -7 18 -15 22 -8 3 -15 12 -15
21 0 8 7 15 15 15 8 0 15 -7 15 -15 0 -9 14 -16 38 -20 20 -3 49 -9 65 -14 15
-5 27 -6 27 -1 0 12 -47 40 -68 40 -10 0 -22 4 -27 9 -6 6 -30 13 -54 17 -42
7 -43 6 -36 -17z"/>
<path d="M520 1125 c0 -18 -17 -20 -23 -2 -2 6 -8 9 -12 5 -4 -4 -1 -13 6 -21
8 -7 25 -28 39 -45 21 -27 32 -32 68 -32 23 0 42 5 42 10 0 6 -16 10 -36 10
-37 0 -55 12 -67 44 -6 14 -4 17 9 12 14 -5 15 -4 5 8 -9 11 -9 15 1 19 7 3 3
6 -9 6 -14 1 -23 -5 -23 -14z"/>
<path d="M640 1126 c0 -9 5 -16 10 -16 6 0 10 4 10 9 0 6 -4 13 -10 16 -5 3
-10 -1 -10 -9z"/>
<path d="M833 1101 c-34 -32 -39 -68 -16 -99 24 -33 40 -37 168 -53 121 -14
273 -43 375 -71 117 -33 135 -34 154 -7 9 13 16 40 16 60 0 29 -7 43 -31 63
-17 14 -43 29 -57 32 -15 3 -61 14 -102 24 -124 31 -298 59 -394 66 -84 6 -93
4 -113 -15z"/>
<path d="M675 1090 c3 -5 8 -10 11 -10 2 0 4 5 4 10 0 6 -5 10 -11 10 -5 0 -7
-4 -4 -10z"/>
<path d="M640 1076 c0 -9 7 -19 15 -23 25 -9 27 2 5 22 -18 17 -20 17 -20 1z"/>
<path d="M700 1060 c0 -5 4 -10 9 -10 5 0 12 -15 15 -34 5 -23 13 -36 28 -40
30 -7 31 -4 4 25 -13 14 -27 35 -30 47 -7 22 -26 31 -26 12z"/>
<path d="M580 953 c0 -10 -3 -28 -6 -40 -4 -14 -2 -23 5 -23 6 0 13 11 17 25
7 28 24 24 24 -6 0 -10 5 -19 11 -19 6 0 8 7 5 16 -3 9 -6 27 -6 40 0 19 -5
24 -25 24 -17 0 -25 -6 -25 -17z"/>
<path d="M720 890 c0 -11 7 -20 15 -20 20 0 19 -19 -2 -42 -15 -17 -15 -18 5
-18 12 0 23 8 27 19 3 11 12 22 20 25 8 3 15 17 15 31 0 23 -4 25 -40 25 -33
0 -40 -3 -40 -20z"/>
<path d="M505 847 c-40 -23 -62 -42 -73 -63 -14 -26 -7 -34 27 -34 25 1 25 1
7 15 -20 15 -20 15 1 34 13 12 29 18 42 14 12 -3 21 -1 21 6 0 6 7 11 16 11
14 0 14 3 4 15 -14 17 -18 17 -45 2z"/>
<path d="M720 762 c0 -22 5 -32 16 -32 11 0 14 6 9 23 -12 38 -25 43 -25 9z"/>
<path d="M885 760 c3 -5 23 -10 43 -11 33 -1 34 -2 12 -9 -17 -5 1 -8 55 -8
44 0 71 3 60 6 -15 4 -9 8 25 18 43 11 38 12 -78 13 -80 1 -121 -3 -117 -9z"/>
<path d="M775 750 c-5 -9 95 -24 103 -15 9 9 -1 12 -51 17 -26 3 -49 2 -52 -2z"/>
<path d="M1200 751 c0 -6 -19 -11 -42 -13 -24 -3 11 -4 77 -5 77 0 123 4 127
11 5 8 11 7 20 -2 9 -9 9 -12 -5 -12 -13 0 -17 -9 -17 -40 l0 -39 -57 -4 c-40
-2 -27 -4 39 -5 63 -1 99 2 104 9 12 20 12 90 0 86 -6 -2 -17 2 -24 10 -16 15
-222 19 -222 4z"/>
<path d="M385 740 c-3 -5 1 -10 10 -10 9 0 13 5 10 10 -3 6 -8 10 -10 10 -2 0
-7 -4 -10 -10z"/>
<path d="M379 706 c5 -6 11 -20 14 -31 3 -14 5 -10 6 11 1 21 -4 31 -14 31 -9
0 -11 -4 -6 -11z"/>
<path d="M389 613 c0 -31 -2 -34 -9 -18 -5 11 -9 17 -9 13 -1 -3 -4 -13 -7
-22 -4 -11 -1 -16 10 -16 12 0 16 -10 16 -40 0 -22 -4 -40 -10 -40 -5 0 -10
-4 -10 -10 0 -5 7 -10 15 -10 12 0 15 17 15 90 0 50 -2 90 -5 90 -3 0 -5 -17
-6 -37z"/>
<path d="M1200 639 c0 -5 5 -7 10 -4 6 3 10 8 10 11 0 2 -4 4 -10 4 -5 0 -10
-5 -10 -11z"/>
<path d="M1207 603 c-11 -11 -8 -125 3 -118 6 3 10 15 10 27 0 14 5 18 15 15
23 -10 27 9 8 47 -17 36 -24 42 -36 29z"/>
<path d="M367 421 c-3 -13 1 -21 14 -24 22 -6 26 15 5 32 -11 9 -15 7 -19 -8z"/>
<path d="M1200 426 c0 -9 -9 -16 -20 -16 -11 0 -20 -5 -20 -11 0 -6 9 -13 20
-16 11 -3 20 -12 20 -20 0 -8 4 -12 9 -9 5 3 9 22 9 41 0 19 -4 38 -9 41 -5 3
-9 -2 -9 -10z"/>
<path d="M1120 345 c0 -17 5 -25 13 -22 6 2 12 12 12 22 0 10 -6 20 -12 23 -8
2 -13 -6 -13 -23z"/>
<path d="M453 305 c18 -38 36 -31 21 9 -3 9 -12 16 -19 16 -10 0 -11 -5 -2
-25z"/>
<path d="M1120 274 c0 -8 5 -12 10 -9 6 3 10 10 10 16 0 5 -4 9 -10 9 -5 0
-10 -7 -10 -16z"/>
<path d="M1150 260 c0 -5 5 -10 11 -10 5 0 7 5 4 10 -3 6 -8 10 -11 10 -2 0
-4 -4 -4 -10z"/>
<path d="M515 240 c3 -5 12 -7 20 -3 21 7 19 13 -6 13 -11 0 -18 -4 -14 -10z"/>
<path d="M1120 230 c0 -5 5 -10 10 -10 6 0 10 5 10 10 0 6 -4 10 -10 10 -5 0
-10 -4 -10 -10z"/>
<path d="M485 220 c-3 -6 1 -13 10 -16 19 -8 30 0 20 15 -8 14 -22 14 -30 1z"/>
<path d="M548 190 c2 -22 6 -40 8 -40 2 0 4 18 4 40 0 22 -3 40 -8 40 -4 0 -6
-18 -4 -40z"/>
<path d="M1120 189 c0 -5 5 -7 10 -4 6 3 10 8 10 11 0 2 -4 4 -10 4 -5 0 -10
-5 -10 -11z"/>
<path d="M580 159 c0 -5 5 -7 10 -4 6 3 10 8 10 11 0 2 -4 4 -10 4 -5 0 -10
-5 -10 -11z"/>
<path d="M626 163 c-13 -13 -5 -23 18 -23 14 0 37 -5 53 -11 27 -10 27 -11 9
-25 -18 -13 -12 -14 53 -14 64 0 72 2 69 18 -3 13 -18 18 -71 24 -38 3 -73 11
-80 16 -18 14 -44 21 -51 15z"/>
<path d="M840 159 c0 -6 9 -13 20 -16 11 -3 20 -9 20 -13 0 -3 18 -7 40 -8 22
-1 40 3 40 8 0 6 -18 10 -40 10 -45 0 -54 16 -12 23 16 2 9 5 -20 6 -29 0 -48
-3 -48 -10z"/>
<path d="M960 159 c0 -4 9 -9 20 -12 13 -3 20 0 20 8 0 8 -9 13 -20 12 -11 -1
-20 -4 -20 -8z"/>
<path d="M1040 161 c0 -5 -8 -12 -17 -14 -14 -4 -15 -5 -2 -6 8 0 24 6 35 14
17 13 17 14 2 15 -10 0 -18 -4 -18 -9z"/>
</g>
</svg>
